<svg id="Laag_1" data-name="Laag 1" xmlns="http://www.w3.org/2000/svg" viewBox="0 0 385.68 343.42"><defs><style>.cls-1{fill:#404244;}.cls-1,.cls-2{stroke:#000;stroke-miterlimit:10;}.cls-2{fill:#313746;}.cls-3,.cls-5{font-size:29.64px;fill:#fff;font-family:MyriadPro-Regular, Myriad Pro;}.cls-3{letter-spacing:0em;}.cls-4{letter-spacing:0em;}.cls-6{letter-spacing:0em;}.cls-7{letter-spacing:0.02em;}</style></defs><title>Artquest logo v2.v4</title><rect class="cls-1" x="215.84" y="188.08" width="169.34" height="154.84" rx="18.83" ry="18.83"/><rect class="cls-1" x="0.5" y="0.5" width="169.34" height="154.84" rx="18.83" ry="18.83"/><path class="cls-2" d="M1129.15,501H994.48a18.6,18.6,0,0,0-7,1.38,14.67,14.67,0,0,0,.48-3.65V375.56c0-8.76-7.76-15.86-17.34-15.86H835.92c-9.58,0-17.34,7.1-17.34,15.86V498.69c0,8.76,7.76,15.86,17.34,15.86H970.58a18.56,18.56,0,0,0,7-1.38,14.67,14.67,0,0,0-.48,3.65V640c0,8.76,7.77,15.86,17.34,15.86h134.67c9.58,0,17.34-7.1,17.34-15.86V516.82C1146.49,508.06,1138.73,501,1129.15,501Z" transform="translate(-789.39 -333.59)"/><text x="-789.39" y="-333.59"></text><text class="cls-3" transform="translate(244.52 245.57) scale(1.09 1)">Q<tspan class="cls-4" x="20.51" y="0">uest</tspan></text><text class="cls-5" transform="translate(96.65 107.03) scale(1.09 1)"><tspan class="cls-6">A</tspan><tspan class="cls-7" x="18.05" y="0">r</tspan><tspan x="28.45" y="0">t</tspan></text></svg>