<svg id="Laag_1" data-name="Laag 1" xmlns="http://www.w3.org/2000/svg" viewBox="0 0 441 444"><defs><style>.cls-1{fill:#404244;}.cls-1,.cls-2,.cls-3,.cls-4,.cls-5,.cls-6{stroke:#000;stroke-miterlimit:10;}.cls-2{fill:#313746;}.cls-3{fill:#313246;}.cls-4{fill:#a9acbc;}.cls-5{fill:#313780;}.cls-6{fill:#31375f;}.cls-7{font-size:32px;fill:#fff;font-family:MyriadPro-Regular, Myriad Pro;}.cls-8{letter-spacing:0em;}.cls-9{letter-spacing:0.02em;}.cls-10{letter-spacing:0em;}</style></defs><title>Artquest logo v2.v3</title><path class="cls-1" d="M1099.55,318.5h-164V465.79a100.78,100.78,0,0,0-112-14.57V327.5h-164v164H781.18a100.79,100.79,0,0,0,4,106H659.55v164h164V631.28a100.78,100.78,0,0,0,112-14.57V753.5h164v-164H957.27a100.86,100.86,0,0,0-6.61-107h148.89Z" transform="translate(-659.05 -318)"/><rect class="cls-2" x="232" y="240.5" width="164" height="164"/><rect class="cls-2" x="232" y="39.5" width="164" height="164"/><rect class="cls-2" x="21" y="240.5" width="164" height="164"/><rect class="cls-2" x="21" y="39.5" width="164" height="164"/><circle class="cls-3" cx="206" cy="224.5" r="82"/><path class="cls-4" d="M948.19,490.61c-17.77.23-33,10.89-40.42,26.27a46.35,46.35,0,0,0-27.33-23.24c18.5-6.26,31.75-24.35,31.48-45.52-.34-26.11-21.1-47-46.37-46.69s-45.5,21.75-45.17,47.86c.27,21.17,14,38.92,32.63,44.7a46.53,46.53,0,0,0-28.89,29.2c-6.66-18-23.64-30.69-43.38-30.44-25.27.32-45.49,21.75-45.16,47.86s21.09,47,46.37,46.69c19.73-.25,36.39-13.37,42.58-31.53a46.86,46.86,0,0,0,24.31,26.4c-18.65,6.17-32,24.34-31.76,45.62.33,26.11,21.09,47,46.37,46.69s45.49-21.75,45.16-47.86A47.37,47.37,0,0,0,881.3,584a46.29,46.29,0,0,0,27-24c7.78,15.19,23.3,25.46,41.07,25.23,25.28-.32,45.5-21.75,45.17-47.86S973.46,490.29,948.19,490.61Z" transform="translate(-659.05 -318)"/><polygon class="cls-5" points="210.63 226.23 211.5 249.99 206.73 250.19 205.85 226.14 208.09 223.6 210.63 226.23"/><polygon class="cls-5" points="235.75 216.15 235.93 221.31 213.73 222.29 211.39 219.86 213.82 217.11 235.75 216.15"/><polygon class="cls-5" points="209.3 189.7 210.18 213.76 207.94 216.29 205.4 213.66 204.53 189.91 209.3 189.7"/><polygon class="cls-5" points="205.4 213.66 189.54 197.25 186.24 200.99 202.3 217.61 204.64 220.03 202.21 222.79 187.05 239.98 190.5 243.55 205.85 226.14 208.09 223.6 210.63 226.23 226.49 242.65 229.79 238.91 213.73 222.29 211.39 219.86 213.82 217.11 228.99 199.91 225.54 196.34 210.18 213.76 207.94 216.29 205.4 213.66"/><polygon class="cls-5" points="204.64 220.03 202.21 222.79 180.29 223.75 180.1 218.58 202.3 217.61 204.64 220.03"/><polygon class="cls-5" points="117.62 228.28 118.48 252.04 113.72 252.25 112.84 228.19 115.08 225.66 117.62 228.28"/><polygon class="cls-5" points="142.73 218.2 142.92 223.37 120.71 224.34 118.37 221.91 120.81 219.16 142.73 218.2"/><polygon class="cls-5" points="111.63 222.09 109.19 224.84 87.27 225.8 87.08 220.63 109.29 219.66 111.63 222.09"/><polygon class="cls-5" points="112.38 215.72 96.53 199.3 93.23 203.04 109.29 219.66 111.63 222.09 109.19 224.84 94.03 242.03 97.48 245.6 112.84 228.19 115.08 225.66 117.62 228.28 133.47 244.7 136.77 240.96 120.71 224.34 118.37 221.91 120.81 219.16 135.97 201.97 132.52 198.4 117.16 215.81 114.92 218.34 112.38 215.72"/><polygon class="cls-5" points="116.28 191.75 117.16 215.81 114.92 218.34 112.38 215.72 111.52 191.96 116.28 191.75"/><ellipse class="cls-6" cx="779.98" cy="540" rx="3.17" ry="3.39" transform="translate(-664.6 -309.9) rotate(-0.59)"/><polygon class="cls-5" points="205.4 307.76 189.54 291.35 186.24 295.09 202.3 311.71 204.64 314.13 202.21 316.89 187.05 334.08 190.5 337.65 205.85 320.24 208.09 317.7 210.63 320.33 226.49 336.75 229.79 333 213.73 316.38 211.39 313.96 213.82 311.21 228.99 294.01 225.54 290.44 210.18 307.86 207.94 310.39 205.4 307.76"/><polygon class="cls-5" points="210.63 320.33 211.5 344.08 206.73 344.29 205.85 320.24 208.09 317.7 210.63 320.33"/><polygon class="cls-5" points="204.64 314.13 202.21 316.89 180.29 317.85 180.1 312.68 202.3 311.71 204.64 314.13"/><polygon class="cls-5" points="209.3 283.8 210.18 307.86 207.94 310.39 205.4 307.76 204.53 284.01 209.3 283.8"/><polygon class="cls-5" points="235.75 310.25 235.93 315.41 213.73 316.38 211.39 313.96 213.82 311.21 235.75 310.25"/><polygon class="cls-5" points="210.63 134.62 211.5 158.37 206.73 158.58 205.85 134.53 208.09 131.99 210.63 134.62"/><polygon class="cls-5" points="235.75 124.53 235.93 129.7 213.73 130.67 211.39 128.25 213.82 125.49 235.75 124.53"/><polygon class="cls-5" points="209.3 98.09 210.18 122.14 207.94 124.68 205.4 122.05 204.53 98.3 209.3 98.09"/><polygon class="cls-5" points="205.4 122.05 189.54 105.63 186.24 109.37 202.3 126 204.64 128.42 202.21 131.18 187.05 148.37 190.5 151.94 205.85 134.53 208.09 131.99 210.63 134.62 226.49 151.03 229.79 147.29 213.73 130.67 211.39 128.25 213.82 125.49 228.99 108.3 225.54 104.73 210.18 122.14 207.94 124.68 205.4 122.05"/><polygon class="cls-5" points="204.64 128.42 202.21 131.18 180.29 132.14 180.1 126.97 202.3 126 204.64 128.42"/><polygon class="cls-5" points="292.2 208.25 276.34 191.84 273.04 195.58 289.1 212.2 291.44 214.63 289.01 217.38 273.85 234.57 277.3 238.15 292.65 220.73 294.89 218.19 297.43 220.83 313.29 237.24 316.59 233.5 300.53 216.88 298.19 214.45 300.62 211.7 315.78 194.5 312.34 190.94 296.98 208.35 294.74 210.88 292.2 208.25"/><polygon class="cls-5" points="291.44 214.63 289.01 217.38 267.09 218.34 266.9 213.18 289.1 212.2 291.44 214.63"/><polygon class="cls-5" points="297.43 220.83 298.3 244.58 293.53 244.79 292.65 220.73 294.89 218.19 297.43 220.83"/><polygon class="cls-5" points="322.54 210.74 322.73 215.91 300.53 216.88 298.19 214.45 300.62 211.7 322.54 210.74"/><polygon class="cls-5" points="296.1 184.29 296.98 208.35 294.74 210.88 292.2 208.25 291.33 184.5 296.1 184.29"/><text class="cls-7" transform="translate(56.33 112.12) scale(1.04 1)"><tspan class="cls-8">A</tspan><tspan class="cls-9" x="19.49" y="0">r</tspan><tspan x="30.72" y="0">t</tspan></text><text class="cls-7" transform="translate(288 346.96)"><tspan class="cls-10">Q</tspan><tspan x="22.14" y="0">uest</tspan></text></svg>