<svg id="Laag_1" data-name="Laag 1" xmlns="http://www.w3.org/2000/svg" viewBox="0 0 441 444"><defs><style>.cls-1{fill:#404244;}.cls-1,.cls-2,.cls-3,.cls-4,.cls-5{stroke:#000;stroke-miterlimit:10;}.cls-2{fill:#313746;}.cls-3{fill:#a9abad;}.cls-4{fill:#202a4a;}.cls-5{fill:#111943;}.cls-6{font-size:32px;fill:#fff;font-family:MyriadPro-Regular, Myriad Pro;}.cls-7{letter-spacing:0em;}.cls-8{letter-spacing:0.02em;}.cls-9{letter-spacing:0em;}</style></defs><title>Artquest logo v2</title><path class="cls-1" d="M1152.34,290.38h-164V437.67a100.82,100.82,0,0,0-112-14.58V299.38h-164v164H834a100.79,100.79,0,0,0,4,106H712.34v164h164V603.16a100.77,100.77,0,0,0,112-14.58v136.8h164v-164H1010.06a100.84,100.84,0,0,0-6.62-107h148.9Z" transform="translate(-711.84 -289.88)"/><rect class="cls-2" x="232" y="240.5" width="164" height="164"/><rect class="cls-2" x="232" y="39.5" width="164" height="164"/><rect class="cls-2" x="21" y="240.5" width="164" height="164"/><rect class="cls-2" x="21" y="39.5" width="164" height="164"/><circle class="cls-3" cx="206" cy="224.5" r="82"/><path class="cls-4" d="M996,469.45c-17.77,0-33.16,10.46-40.74,25.75a46.3,46.3,0,0,0-27-23.59c18.57-6,32-23.94,32-45.12,0-26.11-20.49-47.28-45.77-47.28s-45.77,21.17-45.77,47.28c0,21.18,13.48,39.1,32,45.12a46.57,46.57,0,0,0-29.26,28.82c-6.43-18.08-23.25-31-43-31-25.28,0-45.77,21.16-45.77,47.27S803.29,564,828.57,564c19.73,0,36.55-12.9,43-31a46.88,46.88,0,0,0,24,26.72c-18.72,5.93-32.34,23.92-32.34,45.21,0,26.11,20.49,47.27,45.77,47.27s45.77-21.16,45.77-47.27a47.38,47.38,0,0,0-26.77-43,46.29,46.29,0,0,0,27.33-23.68c7.58,15.28,23,25.75,40.74,25.75,25.28,0,45.78-21.17,45.78-47.28S1021.3,469.45,996,469.45Z" transform="translate(-711.84 -289.88)"/><polygon class="cls-3" points="191.4 222.31 195.11 225.97 191.26 230.13 156.53 231.58 156.23 223.77 191.4 222.31"/><polygon class="cls-3" points="202.49 180.15 203.88 216.49 200.34 220.32 196.31 216.34 194.94 180.46 202.49 180.15"/><polygon class="cls-3" points="244.38 220.09 244.68 227.9 209.51 229.37 205.8 225.71 209.66 221.54 244.38 220.09"/><polygon class="cls-3" points="196.31 216.34 171.19 191.55 165.97 197.2 191.4 222.31 195.11 225.97 191.26 230.13 167.24 256.1 172.7 261.49 197.03 235.19 200.57 231.36 204.6 235.34 229.72 260.13 234.94 254.48 209.51 229.37 205.8 225.71 209.66 221.54 233.67 195.57 228.21 190.18 203.88 216.49 200.34 220.32 196.31 216.34"/><polygon class="cls-3" points="204.6 235.34 205.97 271.21 198.42 271.53 197.03 235.19 200.57 231.36 204.6 235.34"/><ellipse class="cls-5" cx="912.3" cy="515.71" rx="3.16" ry="3.36" transform="translate(-717.48 -279.76) rotate(-0.63)"/><text class="cls-6" transform="translate(65.79 116.16) scale(1.04 1)"><tspan class="cls-7">A</tspan><tspan class="cls-8" x="19.49" y="0">r</tspan><tspan x="30.72" y="0">t</tspan></text><text class="cls-6" transform="translate(288 337.5)"><tspan class="cls-9">Q</tspan><tspan x="22.14" y="0">uest</tspan></text></svg>