<svg id="Laag_1" data-name="Laag 1" xmlns="http://www.w3.org/2000/svg" viewBox="0 0 402.39 570.5"><defs><style>.cls-1{fill:#40474f;stroke:#1d1d1b;stroke-linecap:round;stroke-miterlimit:10;}.cls-2{font-size:30.15px;font-family:MyriadPro-Regular, Myriad Pro;}.cls-3{letter-spacing:0em;}.cls-4{letter-spacing:0.02em;}.cls-5{letter-spacing:-0.01em;}</style></defs><title>logo Artquest</title><path class="cls-1" d="M926.35,261C815.54,263.19,726.81,506.35,729,609.35s93.87,184.73,204.69,182.56,198.84-87.44,196.62-190.44S1037.17,258.84,926.35,261Zm41.1,466.58c-6.87,2.09-14.07-2.48-15.63-10.09a23.94,23.94,0,0,0-3.67-8.66,26.26,26.26,0,0,0-35.22-7.4,24,24,0,0,0-10.87,14.83c-1.82,7.55-9.22,11.68-16,9.22-39.71-14.35-70.19-47.64-79.7-88.86-1.52-6.58,1.58-13.5,7.33-16a24,24,0,0,0,4.25-42A14.54,14.54,0,0,1,813.2,561a125.73,125.73,0,0,1,78-69.54c5.34-1.66,10.94.91,14,6l.67,1a26.25,26.25,0,0,0,35.23,7.39,24.35,24.35,0,0,0,8.68-9.13c2.83-5.24,8.37-8,13.8-6.56a126.36,126.36,0,0,1,80.56,66.39,14.5,14.5,0,0,1-3.89,17.7,24.07,24.07,0,0,0-9.56,19.64,24.48,24.48,0,0,0,15.6,22.07c5.9,2.38,9.18,9.26,7.93,16C1045.8,677.24,1012,714.1,967.45,727.59Z" transform="translate(-728.5 -260.5)"/><text class="cls-2" transform="translate(144.86 562.96) scale(1.18 1)"><tspan class="cls-3">A</tspan><tspan class="cls-4" x="18.36" y="0">r</tspan><tspan class="cls-5" x="28.94" y="0">t</tspan><tspan x="38.74" y="0">quest</tspan></text><ellipse class="cls-1" cx="201.13" cy="344.02" rx="87.63" ry="83.47"/></svg>