<svg enable-background="new 0 0 50 50" viewBox="0 0 50 50" xmlns="http://www.w3.org/2000/svg"><path d="m25 1c-13.233 0-24 10.767-24 24 0 7.091 3.094 13.472 8 17.869v.017l.348.3c.061.053.128.097.19.149.431.364.875.713 1.331 1.047.123.09.246.177.371.264.484.34.979.664 1.487.968.085.051.172.099.257.148.557.324 1.126.629 1.71.908.006.003.012.005.018.008 1.249.595 2.559 1.082 3.915 1.456.025.007.05.015.075.021.641.175 1.293.322 1.954.443.062.011.123.022.185.033.638.112 1.284.201 1.939.262.075.007.15.011.224.017.659.055 1.323.09 1.996.09s1.337-.035 1.996-.09c.075-.006.15-.01.224-.017.655-.06 1.301-.15 1.939-.262.062-.011.123-.022.185-.033.661-.121 1.313-.268 1.954-.443l.075-.021c1.356-.374 2.666-.861 3.915-1.456.006-.003.012-.005.018-.008.584-.279 1.153-.585 1.71-.908.086-.05.172-.097.257-.148.509-.304 1.004-.629 1.487-.968.124-.087.248-.174.371-.264.456-.334.9-.683 1.331-1.047.062-.052.129-.096.19-.149l.348-.3v-.017c4.906-4.398 8-10.778 8-17.869 0-13.233-10.767-24-24-24zm0 24c-4.411 0-8-3.589-8-8s3.589-8 8-8 8 3.589 8 8-3.589 8-8 8zm3 2c6.065 0 11 4.935 11 11v3.958c-.042.035-.086.067-.128.102-.395.321-.8.626-1.214.918-.092.065-.182.132-.274.195-.447.305-.906.591-1.373.862-.085.05-.171.099-.257.148-.49.275-.989.533-1.498.769-.053.025-.107.049-.161.073-1.661.755-3.411 1.302-5.212 1.626-.057.01-.114.021-.171.031-.567.097-1.139.172-1.715.225-.079.007-.159.012-.239.018-.583.045-1.169.075-1.758.075s-1.175-.03-1.758-.077c-.079-.006-.159-.011-.239-.018-.576-.053-1.148-.127-1.715-.225-.057-.01-.114-.02-.171-.031-1.801-.324-3.551-.871-5.212-1.626-.054-.025-.108-.048-.161-.073-.509-.236-1.008-.494-1.498-.769-.086-.049-.171-.098-.257-.148-.467-.27-.926-.557-1.373-.862-.093-.063-.183-.13-.274-.195-.414-.292-.819-.596-1.214-.918-.042-.034-.086-.067-.128-.102v-3.956c0-6.065 4.935-11 11-11zm13 13.076v-2.076c0-6.271-4.464-11.519-10.38-12.735 2.641-1.801 4.38-4.834 4.38-8.265 0-5.514-4.486-10-10-10s-10 4.486-10 10c0 3.431 1.739 6.464 4.38 8.265-5.916 1.216-10.38 6.464-10.38 12.735v2.076c-3.716-3.941-6-9.245-6-15.076 0-12.131 9.869-22 22-22s22 9.869 22 22c0 5.831-2.284 11.135-6 15.076z"/></svg>